<svg width="627" height="480" viewBox="0 0 627 480" fill="none" xmlns="http://www.w3.org/2000/svg">
<path d="M2.71165 217.077L28.6394 244.413L2.52539 271.955H108.565V268.137H12.1924L35.9036 244.432L12.3601 220.895H107.708V217.077H2.71165Z" fill="white"/>
<path d="M625.052 217.077L599.124 244.413L625.238 271.955H520.056V268.137H615.571L591.86 244.432L615.403 220.895H520.056V217.077H625.052Z" fill="white"/>
<path d="M155.354 149L315.111 238.138L472 149L313.677 58.627L155.354 149Z" fill="white" stroke="white" stroke-miterlimit="10"/>
<path d="M322.189 269.664C321.239 268.677 320.159 268.23 318.929 268.323C317.7 268.416 316.415 268.844 315.092 269.589L313.248 270.632V271.06L301.458 264.338L301.495 306.981L313.248 313.759V313.014L316.229 311.338C318.874 309.849 321.053 306.944 322.766 302.586C324.48 298.248 325.318 292.27 325.318 284.654C325.318 280.427 325.039 277.112 324.461 274.729C323.884 272.345 323.139 270.651 322.189 269.664V269.664Z" fill="white"/>
<path d="M321.239 384.317C322.561 382.808 323.735 380.89 324.741 378.544C325.746 376.198 326.547 373.33 327.162 369.96C327.758 366.57 328.056 362.511 328.056 357.781C328.056 348.47 327.069 342.381 325.113 339.495C323.157 336.608 320.568 336.068 317.346 337.875L313.23 340.184V340.947L301.514 334.132L301.57 383.516L313.248 390.425V389.959L317.085 387.818C318.538 386.998 319.935 385.844 321.258 384.335L321.239 384.317Z" fill="white"/>
<path d="M457.62 280.315V158.605L429.178 174.62L457.434 280.408L457.62 280.315Z" fill="white"/>
<path d="M428.507 234.897L428.321 235.009V356.458L414.388 364.261V182.943L403.585 189.033V222.458L367.86 242.513V281.376L400.642 262.978V293.965L367.86 312.344V356.793L404.349 336.347V369.884L352.996 398.654V217.523L320.996 235.549C323.12 234.674 325.113 234.227 326.957 234.246C329.601 234.283 331.874 235.512 333.774 237.914C335.674 240.316 337.145 244.115 338.17 249.273C339.213 254.45 339.734 261.265 339.734 269.719C339.734 278.863 338.952 286.907 337.406 293.871C335.86 300.836 333.569 307.111 330.533 312.698C334.705 313.573 337.816 317.465 339.865 324.355C341.913 331.245 342.938 340.369 342.938 351.71C342.938 360.853 342.267 369.139 340.945 376.569C339.622 383.999 337.834 390.461 335.599 395.954C333.364 401.448 330.794 406.01 327.925 409.641C325.057 413.291 322.095 415.954 319.078 417.648L313.359 420.851L313.695 421.037L471.589 332.194L456.688 340.537L428.526 234.86L428.507 234.897Z" fill="white"/>
<path d="M471.497 150.784L471.571 150.747L471.497 150.784Z" fill="white"/>
<path d="M198.138 354.727L178.394 261.731L170.813 279.72L171.093 339.7L213.002 363.61L198.138 354.727Z" fill="white"/>
<path d="M169.248 158.531L170.198 232.961L193.947 172.441L211.437 182.292L187.372 239.385L215.423 364.987L243.791 381.169C237.011 376.104 231.74 368.823 227.66 356.607C222.873 342.25 220.377 322.977 220.173 298.713L219.241 186.668L233.379 194.638L234.18 306.907C234.217 311.748 234.403 316.59 234.72 321.413C235.055 326.254 235.707 330.724 236.675 334.858C237.644 338.992 239.004 342.679 240.699 345.919C242.412 349.159 244.703 351.636 247.553 353.33C252.564 356.291 256.028 355.229 257.909 350.127C259.791 345.006 260.722 335.77 260.647 322.381L260.107 209.721L274.468 217.803L274.859 330.686C274.952 354.969 272.568 371.486 267.744 380.313C263.907 387.333 258.71 388.506 252.433 386.104L306.394 416.904L287.302 405.507L286.873 224.786L313.211 239.627L313.434 239.497L155.428 150.729L169.23 158.512L169.248 158.531Z" fill="white"/>
<path d="M493.104 138.476L313.696 33.8604L133.915 138.476L134.027 138.532L136.914 344.522L313.696 445.413L492.973 344.522V138.55L493.085 138.494L493.104 138.476Z" stroke="white" stroke-linecap="round" stroke-linejoin="round"/>
<path d="M507.632 130.301L313.714 17.2314L119.387 130.301L119.517 130.375L122.646 353.032L313.714 462.08L507.502 353.032V130.375L507.632 130.301V130.301Z" stroke="white" stroke-width="3" stroke-linecap="round" stroke-linejoin="round"/>
<path d="M520.037 123.318L313.733 3.02344L106.981 123.318L107.112 123.393L110.446 360.276L313.733 476.288L519.907 360.276V123.393L520.037 123.318V123.318Z" stroke="white" stroke-linecap="round" stroke-linejoin="round"/>
<path d="M86.4737 242.923C86.4178 242.513 86.3433 242.104 86.2502 241.713C86.1571 241.322 86.0081 240.949 85.8032 240.633C85.5983 240.316 85.3561 240.055 85.0581 239.869C84.7601 239.664 84.3876 239.571 83.9405 239.571C83.4935 239.571 83.1396 239.664 82.8416 239.869C82.5436 240.055 82.3014 240.316 82.1152 240.633C81.9289 240.949 81.7799 241.303 81.6681 241.713C81.5564 242.104 81.4819 242.513 81.4446 242.923C81.4074 243.333 81.3701 243.724 81.3701 244.115C81.3701 244.506 81.3701 244.823 81.3701 245.102C81.3701 245.549 81.3701 246.107 81.4074 246.741C81.4446 247.392 81.5378 248.007 81.6868 248.603C81.8544 249.199 82.0965 249.701 82.4504 250.13C82.8043 250.558 83.2886 250.763 83.9405 250.763C84.5925 250.763 85.114 250.558 85.4679 250.13C85.8218 249.701 86.0826 249.199 86.2316 248.603C86.3806 248.007 86.4923 247.392 86.511 246.741C86.5482 246.107 86.5482 245.549 86.5482 245.102C86.5482 244.823 86.5482 244.506 86.5482 244.115C86.5482 243.724 86.511 243.333 86.4551 242.923H86.4737Z" fill="white"/>
<path d="M19.2515 223.445L41.1001 244.45L19.1025 265.604L109.291 265.139L107.708 223.445H19.2515ZM68.1455 253.091H56.5041C56.5041 252.16 56.6344 251.378 56.8952 250.689C57.156 250.018 57.5099 249.404 57.9755 248.864C58.4226 248.324 58.9627 247.839 59.5774 247.374C60.1921 246.908 60.844 246.461 61.5145 245.996C61.8684 245.754 62.2223 245.512 62.6321 245.251C63.0232 245.009 63.3771 244.73 63.7124 244.432C64.0291 244.134 64.3085 243.799 64.532 243.408C64.7555 243.035 64.8673 242.607 64.8673 242.123C64.8673 241.359 64.6437 240.745 64.1967 240.316C63.7497 239.888 63.1723 239.665 62.4831 239.665C62.0174 239.665 61.6263 239.776 61.291 240C60.9557 240.223 60.7136 240.503 60.5087 240.856C60.3038 241.21 60.1734 241.601 60.0803 242.03C59.9872 242.458 59.9499 242.886 59.9499 243.314H56.8766C56.8393 242.402 56.9511 241.564 57.1932 240.801C57.4354 240.018 57.7893 239.348 58.2736 238.771C58.7578 238.194 59.3725 237.728 60.0989 237.411C60.8254 237.095 61.6822 236.927 62.6321 236.927C63.3585 236.927 64.0477 237.039 64.6996 237.262C65.3515 237.486 65.9289 237.821 66.4319 238.231C66.9348 238.659 67.3259 239.18 67.6239 239.795C67.922 240.409 68.071 241.117 68.071 241.881C68.071 242.644 67.9406 243.37 67.6798 243.948C67.419 244.525 67.0838 245.028 66.6554 245.475C66.227 245.921 65.7613 246.331 65.2211 246.685C64.681 247.039 64.1408 247.411 63.6007 247.765C63.0605 248.119 62.5203 248.51 62.0174 248.901C61.4959 249.311 61.0489 249.776 60.6577 250.335H68.1455V253.091V253.091ZM89.3235 249.068C89.0069 250.13 88.5971 250.986 88.0569 251.62C87.5168 252.253 86.9021 252.7 86.1943 252.979C85.4865 253.24 84.7415 253.389 83.9405 253.389C83.1396 253.389 82.4132 253.258 81.7054 252.979C80.9976 252.7 80.3829 252.253 79.8614 251.62C79.3399 250.986 78.9114 250.13 78.5948 249.068C78.2782 248.007 78.1291 246.685 78.1291 245.102C78.1291 243.519 78.2782 242.272 78.5948 241.21C78.9114 240.167 79.3212 239.311 79.8614 238.678C80.3829 238.045 80.9976 237.598 81.7054 237.318C82.4132 237.039 83.1582 236.909 83.9405 236.909C84.7228 236.909 85.4865 237.039 86.1943 237.318C86.9021 237.598 87.5168 238.045 88.0569 238.678C88.5971 239.311 89.0069 240.149 89.3235 241.21C89.6402 242.253 89.7892 243.557 89.7892 245.102C89.7892 246.648 89.6402 248.007 89.3235 249.068Z" fill="white"/>
<path d="M586.663 244.45L608.512 223.445H520.074V265.604H608.679L586.682 244.45H586.663ZM549.448 253.091H537.806C537.806 252.16 537.937 251.378 538.198 250.689C538.458 250.018 538.812 249.404 539.278 248.864C539.725 248.324 540.265 247.839 540.88 247.374C541.494 246.908 542.146 246.461 542.817 245.996C543.171 245.754 543.525 245.512 543.934 245.251C544.326 245.009 544.679 244.73 545.015 244.432C545.331 244.134 545.611 243.799 545.834 243.408C546.058 243.035 546.17 242.607 546.17 242.123C546.17 241.359 545.946 240.745 545.499 240.316C545.052 239.888 544.475 239.665 543.785 239.665C543.32 239.665 542.929 239.776 542.593 240C542.258 240.223 542.016 240.503 541.811 240.856C541.606 241.21 541.476 241.601 541.383 242.03C541.29 242.458 541.252 242.886 541.252 243.314H538.179C538.142 242.402 538.253 241.564 538.496 240.801C538.738 240.018 539.092 239.348 539.576 238.771C540.06 238.194 540.675 237.728 541.401 237.411C542.128 237.095 542.985 236.927 543.934 236.927C544.661 236.927 545.35 237.039 546.002 237.262C546.654 237.486 547.231 237.821 547.734 238.231C548.237 238.659 548.628 239.18 548.926 239.795C549.224 240.409 549.373 241.117 549.373 241.881C549.373 242.644 549.243 243.37 548.982 243.948C548.721 244.525 548.386 245.028 547.958 245.475C547.529 245.921 547.064 246.331 546.523 246.685C545.983 247.039 545.443 247.411 544.903 247.765C544.363 248.119 543.823 248.51 543.32 248.901C542.798 249.311 542.351 249.776 541.96 250.335H549.448V253.091V253.091ZM571.092 253.091H559.45C559.45 252.16 559.581 251.378 559.841 250.689C560.102 250.018 560.456 249.404 560.922 248.864C561.369 248.324 561.909 247.839 562.523 247.374C563.138 246.908 563.79 246.461 564.461 245.996C564.814 245.754 565.168 245.512 565.578 245.251C565.969 245.009 566.323 244.73 566.658 244.432C566.975 244.134 567.254 243.799 567.478 243.408C567.702 243.035 567.813 242.607 567.813 242.123C567.813 241.359 567.59 240.745 567.143 240.316C566.696 239.888 566.118 239.665 565.429 239.665C564.964 239.665 564.572 239.776 564.237 240C563.902 240.223 563.66 240.503 563.455 240.856C563.25 241.21 563.119 241.601 563.026 242.03C562.933 242.458 562.896 242.886 562.896 243.314H559.823C559.785 242.402 559.897 241.564 560.139 240.801C560.381 240.018 560.735 239.348 561.22 238.771C561.704 238.194 562.319 237.728 563.045 237.411C563.771 237.095 564.628 236.927 565.578 236.927C566.305 236.927 566.994 237.039 567.646 237.262C568.298 237.486 568.875 237.821 569.378 238.231C569.881 238.659 570.272 239.18 570.57 239.795C570.868 240.409 571.017 241.117 571.017 241.881C571.017 242.644 570.887 243.37 570.626 243.948C570.365 244.525 570.03 245.028 569.601 245.475C569.173 245.921 568.707 246.331 568.167 246.685C567.627 247.039 567.087 247.411 566.547 247.765C566.007 248.119 565.466 248.51 564.964 248.901C564.442 249.311 563.995 249.776 563.604 250.335H571.092V253.091V253.091Z" fill="white"/>
<path d="M314.179 239.069L155.446 150.747L157.998 332.213L313.676 421.056L471.571 332.213V150.747L314.179 239.069Z" stroke="white" stroke-width="2" stroke-miterlimit="10"/>
</svg>
